<svg version="1.2" xmlns="http://www.w3.org/2000/svg" viewBox="0 0 2000 2000" width="2000" height="2000">
	<title>New Project</title>
	<style>
		.s0 { fill: #f2e2c4 } 
		.s1 { fill: #000000 } 
	</style>
	<g id="Layer 1">
		<g id="Layer 1">
			<g id="&lt;Group&gt;">
				<path id="Shape 3" fill-rule="evenodd" class="s0" d="m121.76 803.71c0 0-1.98 79.45 94.2 95.4-0.37-0.82 34.21-512.84 82.29-536.84 5.9-5.94-21.18 2.74-56.6 43.47-34.64 39.84-59 105.43-59 105.43 0 0-7.05 25.41-4.05 61.45 3.01 36.05 64.42 18.79 11.89 97.25-47.75 44.19-147.12-10.36-144.99-97.96 2.14-87.6 86.39-344.83 364.43-344.83 278.04 0 195.77 301.14 56.82 354.63-32.31 15.06 74.04-36.84 121.47 137.15 54.61 173.59-160.6 332.66-284.09 344.83-123.5 12.16-229.08-23.71-240.99-154.78-11.92-131.08 60.09-126.63 58.62-105.2zm274.45-464.95c-18.88-1.67-38.12 227.19-35.26 227.27 2.86 0.08 102.88-3.48 111.09-138.65 0.17-8.96 6.03-81.39-75.83-88.62zm-43.1 301.73c0 0-28.1 252.51-25.47 252.74 1.49 0.14 69.18-22.9 106.23-65.34 28.64-32.8 28.96-87.48 28.96-87.48 2.58-120.73-109.72-99.92-109.72-99.92z"/>
				<path id="Shape 3" fill-rule="evenodd" class="s1" d=""/>
			</g>
			<g id="&lt;Group&gt;">
				<path id="Shape 6" fill-rule="evenodd" class="s0" d="m860.56 608.54c27.96-41.41 25.65-92.02 23.51-117.55-65.93-36.48-44.44-93.07 3.92-109.72 48.35-16.66 59.68 53.45 56.82 82.29 29.62 3 73.29-28.45 101.88-43.11 28.59-14.65 97.44-48.74 92.09 15.68-31.57 67.55-97.18 291.73-41.15 289.97 56.04-1.76 56.53-231.39 57.84-252.24 0 0-8.6-62.61 38.17-73 77.68-16.63 35.81 76.12 41.14 76.41 5.33 0.3 9.93-39.42 33.31-58.78 23.37-19.35 25.94-26.43 66.61-29.38 96.26-6.88 39.54 226.82 39.19 254.7-0.35 27.88 7.6 35.89 15.67 37.23 8.08 1.33 13.17-7.74 19.6-23.51 6.42-15.78 21.43-2.57 19.59 19.59-1.84 22.16 5.09 98.39-76.41 107.76-81.51 9.36-69.87-112.07-58.78-190.05 11.09-77.98 7.29-98.26-7.84-96.01-67.57 3.88-56.03 252.79-56.82 282.14-0.78 29.35-45.06 35.27-45.06 35.27 0 0-35.01 8.13-43.1 3.92-10.58-2.02-4.35-33.67 0-58.78-9.9 19.1-13.54 23.49-27.06 42.96-13.54 19.48-29.68 31.92-61.11 33.45-141.19 6.88-26.96-307.98-45.06-297.81-18.11 10.17-47.95 12.99-74.46 3.92 0 0-1.9 45.49-18.1 79.41-18.24 38.16-51 65.38-50.47 67.53 6.15 117.29-73.06 196.67-125.39 201.81-52.34 5.13-142.4 5.17-144.99-199.85-2.59-205.02 137.15-221.39 137.15-221.39 103.33-15.39 122.47 98.74 129.31 137.14zm-60.74 37.23c3.65-112.31-48.98-94.04-48.98-94.04-68.87 39.32 19.59 109.62 48.98 94.04zm-66.61 154.78c26.47-0.8 45.22-34.34 62.69-84.25-75.98 7.55-101.88-48.98-101.88-48.98-13.73 121.85 22.59 133.86 39.19 133.23z"/>
				<path id="Shape 6" fill-rule="evenodd" class="s1" d=""/>
			</g>
			<path id="Shape 7" fill-rule="evenodd" class="s0" d="m1264.17 387.74c0 0-49.59 13.73-54.86-82.29-5.27-96.02 90.79-105.29 103.49-107.51 12.69-2.23 118.89-15.38 166.89-23.76 23.82-4.15 84.37-18.12 118.48-37.7 34.13-19.57 72.63-49.84 99-50.47 52.37-1.25 78.74 37.91 80.33 64.66 1.59 26.74 16.71 105.13-195.93 135.19-10.36 145.45-25.47 446.71-25.47 446.71 0 0 0.9 23.28-19.59 27.43-20.5 4.15-68.58 11.76-68.58 11.76 0 0-26.31 6.07-25.47-17.64 1.86-28.54 34.11-430.9 21.56-462.39-51.73 4.37-139.5-1.56-199.85 96.01z"/>
			<g id="&lt;Group&gt;">
				<path id="Shape 9" fill-rule="evenodd" class="s0" d="m1724.6 313.29c0 0 129.9-15.48 133.23 174.37 3.09 175.87-75.2 232.74-130.51 242.09-25.16 4.25-153.88-7.35-135.95-206.82 17.93-199.47 110.23-209.04 133.23-209.64zm48.98 119.51c-7.09-48.82-59.89-51.27-86.21 74.45-26.31 125.73 31.35 133.24 31.35 133.24 52.55 15.51 61.95-158.86 54.86-207.69z"/>
				<path id="Shape 9" fill-rule="evenodd" class="s1" d=""/>
			</g>
			<path id="Shape 10" fill-rule="evenodd" class="s0" d="m1813.38 267.27c0 0 35.91-0.96 56.92-42.36 21.02-41.4 21.63-75.08 21.63-75.08 0 0 1.86 34.91 23.18 76.63 21.31 41.71 60.89 40.81 60.89 40.81 0 0-33.09 0.59-57.8 34.27-24.72 33.68-24.72 76.62-24.72 76.62-0.36-84.83-80.1-110.89-80.1-110.89z"/>
			<g id="&lt;Group&gt;">
				<path id="Shape 17" fill-rule="evenodd" class="s0" d="m959.08 1080.93c0 0 89.74-27.69 82.25 26-9.23 66.3-40.97 227.41 13.72 211.6 54.68-15.81 75.53-270.85 82.29-342.87 6.76-63.62 32.7-57.31 54.86-60.74 20.49-3.18 53.9 2.21 50.94 23.51-2.96 21.3-16.52 68.65-5.88 50.94 10.64-17.71 27.27-96.69 113.64-103.84 86.36-7.15 84.25 84.25 84.25 84.25 0 0-2.79 57.42-9.8 125.39-7.01 67.97-15.18 120.16 7.84 117.56 23.02-2.61 43.75-106.96 60.73-207.68 16.99-100.73 89.27-168.78 135.19-174.38 45.93-5.6 89.86 16.93 92.09 37.23 2.23 20.29-6.84-67.68 54.86-68.58 61.7-0.9 48.47 24.28 47.02 41.15-1.45 16.87-62.7 521.16-62.7 521.16 0 0-28.68 282.35-346.79 258.63-318.1-23.73-369.71 46.25-395.77 101.88-14.63 31.27-12.52 31.17-25.47 29.39-15.69-2.18-92.56-158.31 71.95-228.2 164.48-69.89 198.12-45.34 270.92-48.06 72.81-2.72 329.42 26.16 348.75-252.75 2.3-33.21-30.23 95.97-99.92 88.17-69.69-7.8-86.21-82.29-86.21-82.29 0 0-45.26 118.69-109.72 119.52-64.46 0.82-94.61-55.59-76.41-192.01 18.2-136.42-29.45-160.82-50.94-96.01-21.49 64.82-38.54 65.52-39.18 301.73-0.06 23.77-26.63 25.86-33.31 27.43-15.77 3.71-82.9 23.26-82.29-5.88 0.61-29.13 5.88-54.85 5.88-54.85 0 0-35.98 105.03-107.76 113.63-71.79 8.6-90.44-54.86-90.13-107.76 0.31-52.9 21.55-229.23 21.55-229.23 0 0-1.08-17.65 23.55-24.04zm675.91 100.45c43.67 0.71 64.13-118.91 64.66-139.11 0.53-20.2 20.26-130.47-27.43-131.27-47.69-0.8-72.5 133.23-72.5 133.23-14.32 60.97-8.4 136.44 35.27 137.15z"/>
				<path id="Shape 17" fill-rule="evenodd" class="s1" d=""/>
				<path id="Shape 14" fill-rule="evenodd" class="s0" d="m662.03 944.16c97.67 2.14 187.35 51 197.89 156.74 8.89 128.91-136.58 207.41-127.36 107.76 23.03-141.06-6.91-156.29-48.98-154.78-42.06 1.51-57.78 31.27-66.61 90.13 1.41 63.48 51.82 96.32 96.45 137.03 75.67 69.04 163.09 125.47 170.01 239.15 11.01 180.74-104.88 289.89-199.85 291.93-94.96 2.04-222.47-40.16-203.76-188.09 18.71-147.92 121.2-134.7 121.2-134.7 0 0 37.19-3.31 2.47 106.62-15.7 49.71 55.39 78.53 73.57 77.71 18.18-0.84 67.77-6.62 61.17-123.16-4.14-36.37-38.39-62.52-166.33-179.22-127.94-116.69-104.78-163.79-103.95-239.01 0.82-75.21 96.41-190.24 194.08-188.11z"/>
				<path id="Shape 15" fill-rule="evenodd" class="s0" d="m921.63 1001.65c0 0 8.78-69.16 68.57-72.49 59.8-3.33 60.92 42.5 61.72 63.19 1.29 32.95-8.6 72.43-67.6 77.88-58.99 5.44-68.98-37.97-62.69-68.58z"/>
			</g>
		</g>
	</g>
</svg>