<svg width="140" height="140" viewBox="0 0 140 140" fill="none" xmlns="http://www.w3.org/2000/svg">
<path d="M56.8857 53.1729C51.8835 57.0769 48.6671 63.1629 48.667 70C48.6672 81.7818 58.2182 91.3338 70 91.334C76.8372 91.3339 82.9219 88.1158 86.8262 83.1133L88.25 84.5371C83.9747 89.8973 77.3892 93.3339 70 93.334L69.3984 93.3262C56.7901 93.0069 46.6672 82.6853 46.667 70C46.6671 62.6109 50.1019 56.0242 55.4619 51.749L56.8857 53.1729ZM70 46.667C82.8864 46.6672 93.3338 57.1136 93.334 70L93.3262 70.6025C93.2203 74.7794 92.0147 78.6825 89.9912 82.0361L88.5303 80.5752C90.3132 77.4579 91.3339 73.8483 91.334 70C91.3338 58.2182 81.7818 48.6672 70 48.667C66.1517 48.667 62.5411 49.6858 59.4238 51.4688L57.9629 50.0078C61.4773 47.8873 65.5962 46.6671 70 46.667Z" fill="white"/>
<path d="M46.8496 43.1377C43.1864 45.3337 39.7609 47.8731 36.6367 50.5137C27.5635 58.1825 21.1698 66.59 19.0703 69.5049C18.9774 69.6338 18.9055 69.7338 18.8457 69.8213C18.7898 69.903 18.7551 69.9593 18.7324 70C18.7551 70.0407 18.7898 70.097 18.8457 70.1787C18.9055 70.2662 18.9774 70.3662 19.0703 70.4951C21.1698 73.41 27.5635 81.8175 36.6367 89.4863C45.7297 97.1718 57.3773 104 70 104C80.1092 104 89.5918 99.6188 97.6387 93.9268L99.0732 95.3613C90.7654 101.292 80.7835 106 70 106C56.6767 106 44.5756 98.8149 35.3457 91.0137C26.0966 83.1962 19.5931 74.6434 17.4473 71.6641C17.2799 71.4316 17.0993 71.184 16.9717 70.9502C16.8272 70.6853 16.7139 70.3762 16.7139 70C16.7139 69.6238 16.8272 69.3147 16.9717 69.0498C17.0993 68.816 17.2799 68.5684 17.4473 68.3359C19.5931 65.3566 26.0966 56.8038 35.3457 48.9863C38.4005 46.4044 41.7706 43.8914 45.3945 41.6826L46.8496 43.1377ZM70 34C83.3233 34.0001 95.4245 41.1851 104.654 48.9863C113.903 56.8039 120.407 65.3567 122.553 68.3359C122.72 68.5684 122.901 68.816 123.028 69.0498C123.173 69.3146 123.286 69.6239 123.286 70C123.286 70.3761 123.173 70.6854 123.028 70.9502C122.901 71.184 122.72 71.4316 122.553 71.6641C120.407 74.6433 113.903 83.1961 104.654 91.0137C103.64 91.8712 102.589 92.7189 101.507 93.5527L100.081 92.127C101.208 91.2641 102.304 90.382 103.363 89.4863C112.437 81.8174 118.83 73.4099 120.93 70.4951C121.023 70.3662 121.094 70.2662 121.154 70.1787C121.21 70.0972 121.244 70.0407 121.267 70C121.244 69.9593 121.21 69.9028 121.154 69.8213C121.094 69.7338 121.023 69.6338 120.93 69.5049C118.83 66.5901 112.437 58.1826 103.363 50.5137C94.2704 42.8282 82.6227 36.0001 70 36C62.7667 36 55.8542 38.2437 49.5586 41.6045L48.082 40.1279C54.7405 36.4894 62.1585 34 70 34Z" fill="white"/>
<path d="M29.1665 11.6667L122.5 105" stroke="white" stroke-width="2"/>
</svg>
