<svg version="1.2" xmlns="http://www.w3.org/2000/svg" viewBox="0 0 140 140" width="140" height="140">
	<style>
		.s0 { fill: #ffffff;stroke: #ffffff;stroke-miterlimit:100 } 
	</style>
	<g id="Layer 1">
		<path class="s0" d="m56.89 53.17c-5.01 3.91-8.22 9.99-8.22 16.83 0 11.78 9.55 21.33 21.33 21.33 6.84 0 12.92-3.21 16.83-8.22l1.42 1.43c-4.28 5.36-10.86 8.79-18.25 8.79h-0.6c-12.61-0.32-22.73-10.64-22.73-23.33 0-7.39 3.43-13.98 8.79-18.25zm13.12-6.51c12.88 0 23.33 10.45 23.33 23.34l-0.01 0.6c-0.1 4.18-1.31 8.08-3.33 11.43l-1.46-1.46c1.78-3.12 2.8-6.73 2.8-10.57 0-11.79-9.55-21.34-21.33-21.34-3.85 0-7.46 1.02-10.58 2.8l-1.46-1.46c3.51-2.12 7.63-3.34 12.04-3.34z"/>
		<path class="s0" d="m46.85 43.14c-3.66 2.19-7.09 4.73-10.21 7.37-9.08 7.67-15.47 16.08-17.57 18.99q-0.14 0.19-0.22 0.32-0.09 0.12-0.12 0.18 0.03 0.06 0.12 0.18 0.08 0.13 0.22 0.32c2.1 2.91 8.49 11.32 17.57 18.99 9.09 7.68 20.74 14.51 33.36 14.51 10.11 0 19.59-4.38 27.64-10.07l1.43 1.43c-8.3 5.93-18.29 10.64-29.07 10.64-13.32 0-25.42-7.19-34.65-14.99-9.25-7.81-15.76-16.37-17.9-19.35-0.17-0.23-0.35-0.48-0.48-0.71-0.14-0.26-0.26-0.57-0.26-0.95 0-0.38 0.12-0.69 0.26-0.95 0.13-0.23 0.31-0.48 0.48-0.71 2.14-2.98 8.65-11.54 17.9-19.35 3.05-2.59 6.42-5.1 10.04-7.31zm23.15-9.14c13.33 0.01 25.43 7.19 34.66 14.99 9.25 7.82 15.75 16.37 17.9 19.35 0.16 0.23 0.35 0.48 0.47 0.71 0.15 0.27 0.26 0.58 0.26 0.95 0 0.38-0.11 0.69-0.26 0.96-0.12 0.23-0.31 0.48-0.47 0.71-2.15 2.98-8.65 11.53-17.9 19.35q-1.52 1.29-3.15 2.54l-1.42-1.43q1.69-1.29 3.28-2.64c9.07-7.67 15.46-16.08 17.56-18.99q0.14-0.19 0.23-0.32 0.08-0.12 0.11-0.18-0.03-0.05-0.11-0.17-0.09-0.13-0.23-0.32c-2.1-2.91-8.49-11.32-17.56-18.99-9.09-7.69-20.74-14.51-33.37-14.52-7.23 0-14.14 2.25-20.44 5.61l-1.47-1.48c6.66-3.64 14.07-6.13 21.91-6.13z"/>
	</g>
</svg>